<svg id="Capa_1" enable-background="new 0 0 512 512" width="50" height="50" fill="#ffffff" viewBox="0 0 512 512" xmlns="http://www.w3.org/2000/svg"><g><path d="m246.315 417.35h-221.117c-13.894 0-25.198-11.304-25.198-25.199v-272.303c0-13.894 11.304-25.198 25.198-25.198h113.71c4.142 0 7.5 3.358 7.5 7.5s-3.358 7.5-7.5 7.5h-113.71c-5.623 0-10.198 4.575-10.198 10.198v272.303c0 5.624 4.575 10.198 10.198 10.198h221.117c4.142 0 7.5 3.358 7.5 7.5s-3.358 7.501-7.5 7.501z"/><path d="m486.802 417.35h-210.487c-4.142 0-7.5-3.358-7.5-7.5s3.358-7.5 7.5-7.5h210.487c5.623 0 10.198-4.575 10.198-10.198v-272.304c0-5.623-4.575-10.198-10.198-10.198h-317.894c-4.142 0-7.5-3.358-7.5-7.5s3.358-7.5 7.5-7.5h317.895c13.894 0 25.198 11.304 25.198 25.198v272.303c-.001 13.895-11.305 25.199-25.199 25.199z"/><path d="m364.064 162.262h-106.663c-4.142 0-7.5-3.358-7.5-7.5s3.358-7.5 7.5-7.5h106.663c4.142 0 7.5 3.358 7.5 7.5s-3.357 7.5-7.5 7.5z"/><path d="m306.277 195.452h-48.876c-4.142 0-7.5-3.358-7.5-7.5s3.358-7.5 7.5-7.5h48.876c4.142 0 7.5 3.358 7.5 7.5s-3.358 7.5-7.5 7.5z"/><path d="m436.968 195.452h-97.341c-4.142 0-7.5-3.358-7.5-7.5s3.358-7.5 7.5-7.5h97.341c4.142 0 7.5 3.358 7.5 7.5s-3.358 7.5-7.5 7.5z"/><path d="m364.064 233.727h-106.663c-4.142 0-7.5-3.358-7.5-7.5s3.358-7.5 7.5-7.5h106.663c4.142 0 7.5 3.358 7.5 7.5s-3.357 7.5-7.5 7.5z"/><path d="m306.277 266.917h-48.876c-4.142 0-7.5-3.358-7.5-7.5s3.358-7.5 7.5-7.5h48.876c4.142 0 7.5 3.358 7.5 7.5s-3.358 7.5-7.5 7.5z"/><path d="m436.968 266.917h-97.341c-4.142 0-7.5-3.358-7.5-7.5s3.358-7.5 7.5-7.5h97.341c4.142 0 7.5 3.358 7.5 7.5s-3.358 7.5-7.5 7.5z"/><path d="m453.635 365.099h-196.234c-4.142 0-7.5-3.358-7.5-7.5v-40.575c0-4.142 3.358-7.5 7.5-7.5h196.233c4.142 0 7.5 3.358 7.5 7.5v40.575c.001 4.142-3.357 7.5-7.499 7.5zm-188.734-15h181.233v-25.575h-181.233z"/><path d="m122.264 380.451h-24.373c-6.795 0-12.324-5.529-12.324-12.324v-13.519h-13.519c-6.795 0-12.324-5.529-12.324-12.324v-24.373c0-6.795 5.529-12.324 12.324-12.324h13.519v-13.519c0-6.795 5.529-12.324 12.324-12.324h24.373c6.795 0 12.324 5.529 12.324 12.324v13.519h13.519c6.795 0 12.324 5.529 12.324 12.324v24.373c0 6.795-5.529 12.324-12.324 12.324h-13.519v13.519c0 6.795-5.528 12.324-12.324 12.324zm-21.697-15h19.021v-13.519c0-6.795 5.529-12.324 12.324-12.324h13.519v-19.021h-13.519c-6.795 0-12.324-5.529-12.324-12.324v-13.519h-19.021v13.519c0 6.795-5.529 12.324-12.324 12.324h-13.519v19.021h13.519c6.795 0 12.324 5.529 12.324 12.324zm47.54-44.864h.01z"/><path d="m139.091 252.893h-65.741c-13.894 0-25.198-11.304-25.198-25.198v-65.74c0-13.894 11.304-25.198 25.198-25.198h65.741c13.894 0 25.198 11.304 25.198 25.198v65.74c0 13.894-11.304 25.198-25.198 25.198zm-65.741-101.137c-5.623 0-10.198 4.575-10.198 10.198v65.74c0 5.624 4.575 10.198 10.198 10.198h65.741c5.623 0 10.198-4.575 10.198-10.198v-65.74c0-5.623-4.575-10.198-10.198-10.198z"/><path d="m106.221 227.545c-18.042 0-32.721-14.679-32.721-32.721s14.679-32.721 32.721-32.721 32.721 14.678 32.721 32.721-14.679 32.721-32.721 32.721zm0-50.441c-9.771 0-17.721 7.95-17.721 17.721s7.95 17.721 17.721 17.721 17.721-7.95 17.721-17.721c-.001-9.772-7.95-17.721-17.721-17.721z"/><path d="m203.686 371.099c-4.142 0-7.5-3.358-7.5-7.5v-219.343c0-4.142 3.358-7.5 7.5-7.5s7.5 3.358 7.5 7.5v219.343c0 4.142-3.358 7.5-7.5 7.5z"/></g></svg>
