<?xml version="1.0"?>
<svg xmlns="http://www.w3.org/2000/svg" viewBox="0 0 64 64" width="512" height="512"><g id="filled_outline" data-name="filled outline"><polygon points="61 55 25 55 25 3 51 3 61 13 61 55" style="fill:#87ced9"/><polygon points="51 3 51 13 61 13 51 3" style="fill:#e8594a"/><path d="M56,24H30a1,1,0,0,0-1,1V50a1,1,0,0,0,1,1H56a1,1,0,0,0,1-1V25A1,1,0,0,0,56,24Zm-1,5H48V26h7Zm-9,7v3H31V36ZM31,34V31H46v3Zm15,7v3H31V41Zm2,0h7v3H48Zm0-2V36h7v3Zm0-5V31h7v3Zm-2-8v3H31V26ZM31,46H46v3H31Zm17,3V46h7v3Z" style="fill:#73bec9"/><rect x="45" y="16" width="11" height="2" style="fill:#73bec9"/><rect x="45" y="20" width="11" height="2" style="fill:#73bec9"/><rect x="45" y="12" width="3" height="2" style="fill:#73bec9"/><path d="M41,35H25V55H45V39A4,4,0,0,0,41,35Z" style="fill:#73bec9"/><rect x="10" y="28" width="26" height="40" rx="4" ry="4" transform="translate(-25 71) rotate(-90)" style="fill:#e8594a"/><path d="M39,35h-.537C28.882,48.264,14.48,56.127,4.681,60.249A3.974,3.974,0,0,0,7,61H39a4,4,0,0,0,4-4V39A4,4,0,0,0,39,35Z" style="fill:#db4a3b"/><rect x="7" y="39" width="6" height="6" transform="translate(-32 52) rotate(-90)" style="fill:#fdbb3d"/><rect x="7" y="48" width="4" height="2" style="fill:#ff8c80"/><rect x="7" y="52" width="4" height="2" style="fill:#ff8c80"/><rect x="25" y="52" width="4" height="2" style="fill:#ff8c80"/><rect x="13" y="48" width="4" height="2" style="fill:#ff8c80"/><rect x="19" y="48" width="4" height="2" style="fill:#ff8c80"/><rect x="25" y="48" width="4" height="2" style="fill:#ff8c80"/><rect x="31" y="48" width="4" height="2" style="fill:#ff8c80"/><rect x="37" y="39" width="2" height="2" style="fill:#bd3a35"/><rect x="33" y="39" width="2" height="2" style="fill:#bd3a35"/><rect x="29" y="39" width="2" height="2" style="fill:#bd3a35"/><rect x="25" y="39" width="2" height="2" style="fill:#bd3a35"/><rect x="32" y="53" width="7" height="4" style="fill:#4398d1"/><polygon points="42 11 38 11 38 7 34 7 34 11 30 11 30 15 34 15 34 19 38 19 38 15 42 15 42 11" style="fill:#4398d1"/><path d="M61.936,12.68c-.011-.032-.019-.063-.033-.094a.984.984,0,0,0-.2-.293l-10-10a.985.985,0,0,0-.3-.2c-.028-.012-.056-.02-.085-.03a.966.966,0,0,0-.271-.054C51.036,2.01,51.019,2,51,2H25a1,1,0,0,0-1,1V32h2V4H50v9a1,1,0,0,0,1,1h9V54H46v2H61a1,1,0,0,0,1-1V13c0-.022-.011-.041-.013-.063A.945.945,0,0,0,61.936,12.68ZM52,12V5.414L58.586,12Z"/><path d="M29,32h2V31H46v3H45v2h1V51H56a1,1,0,0,0,1-1V25a1,1,0,0,0-1-1H30a1,1,0,0,0-1,1Zm19-6h7v3H48Zm0,5h7v3H48Zm0,5h7v3H48Zm0,5h7v3H48Zm0,5h7v3H48ZM31,26H46v3H31Z"/><rect x="45" y="16" width="11" height="2"/><rect x="45" y="20" width="11" height="2"/><rect x="45" y="12" width="3" height="2"/><path d="M7,62H39a5.006,5.006,0,0,0,5-5V39a5.006,5.006,0,0,0-5-5H7a5.006,5.006,0,0,0-5,5V57A5.006,5.006,0,0,0,7,62ZM4,39a3,3,0,0,1,3-3H39a3,3,0,0,1,3,3V57a3,3,0,0,1-3,3H7a3,3,0,0,1-3-3Z"/><path d="M7,46h6a1,1,0,0,0,1-1V39a1,1,0,0,0-1-1H7a1,1,0,0,0-1,1v6A1,1,0,0,0,7,46Zm1-6h4v4H8Z"/><rect x="7" y="48" width="4" height="2"/><rect x="7" y="52" width="4" height="2"/><rect x="25" y="52" width="4" height="2"/><rect x="13" y="48" width="4" height="2"/><rect x="19" y="48" width="4" height="2"/><rect x="25" y="48" width="4" height="2"/><rect x="31" y="48" width="4" height="2"/><rect x="37" y="39" width="2" height="2"/><rect x="33" y="39" width="2" height="2"/><rect x="29" y="39" width="2" height="2"/><rect x="25" y="39" width="2" height="2"/><path d="M32,52a1,1,0,0,0-1,1v4a1,1,0,0,0,1,1h7a1,1,0,0,0,1-1V53a1,1,0,0,0-1-1Zm6,4H33V54h5Z"/><path d="M38,6H34a1,1,0,0,0-1,1v3H30a1,1,0,0,0-1,1v4a1,1,0,0,0,1,1h3v3a1,1,0,0,0,1,1h4a1,1,0,0,0,1-1V16h3a1,1,0,0,0,1-1V11a1,1,0,0,0-1-1H39V7A1,1,0,0,0,38,6Zm3,6v2H38a1,1,0,0,0-1,1v3H35V15a1,1,0,0,0-1-1H31V12h3a1,1,0,0,0,1-1V8h2v3a1,1,0,0,0,1,1Z"/></g></svg>
